<svg xmlns="http://www.w3.org/2000/svg" version="1.1" xmlns:xlink="http://www.w3.org/1999/xlink" xmlns:svgjs="http://svgjs.dev/svgjs" width="100%" height="100%" viewBox="0 0 1000 600"><rect width="1000" height="600" x="0" y="0" fill="#e2d3f4"/><g><circle r="166.66666666666666" cx="456.9300333658854" cy="479.15225597278277" fill="#013dc4" transform="matrix(0.4306434193984674,0,0,0.4306434193984674,0,93.6562389483858)"/><path d="M453.1894745906267 528.2526586086698L453.1894745906267 528.2526586086698Q447.72072464330756 528.2526586086698 442.701785297716 525.1750071231655Q437.6591717099283 522.1210298798574 434.60519446662016 515.468567822729Q431.5275429811159 508.8161057656005 431.5275429811159 498.4231134414745L431.5275429811159 498.4231134414745Q431.5275429811159 489.90038625084736 433.5872020521841 479.24697726256335Q435.6231868810562 468.59356827427933 438.9375807885223 457.84546231721055Q442.27564893818464 447.12103060233795 446.18189890055544 438.43258371633743L446.18189890055544 438.43258371633743Q434.43947477124686 446.2687578832752 425.56163394767685 460.0708410836521Q416.70746736630304 473.87292428402895 410.2207250045479 492.12576501728887L410.2207250045479 492.12576501728887Q411.5938310519267 497.57084072241184 412.4461037709894 502.3530376460415Q413.29837649005214 507.11156032747505 413.29837649005214 511.0414845320421L413.29837649005214 511.0414845320421Q413.29837649005214 518.5462193082333 409.72356591842794 522.8075829035469Q406.12508110460755 527.0689464988604 397.2709145232337 527.0689464988604L397.2709145232337 527.0689464988604Q389.43474035629595 527.0689464988604 385.765232815887 523.5651586538248Q382.09572527547806 520.0613708087892 382.09572527547806 513.7640223846035L382.09572527547806 513.7640223846035Q382.09572527547806 509.66837848466326 383.53985404944547 504.3890224749136Q385.007657065609 499.10966646516397 387.73019491817047 492.9780377363516L387.73019491817047 492.9780377363516Q384.6525434326662 483.9344772174083 380.2254601419793 472.59451520543485Q375.7983768512924 461.25455319346145 367.77280874678513 447.8075836260274L367.77280874678513 447.8075836260274Q365.40538452716646 457.84546231721055 362.9195890965668 467.8359925240013Q360.45746790816344 477.80284848859594 358.82394519662654 486.2308787104384Q357.21409672728583 494.68258317447703 357.21409672728583 500.4590982703466L357.21409672728583 500.4590982703466Q357.21409672728583 509.8340981800365 362.32773304166216 509.8340981800365L362.32773304166216 509.8340981800365L362.6591724324088 510.18921181297935Q362.6591724324088 515.8000072134755 359.86561185325877 519.8246283868273Q357.04837703191254 523.8255753179828 352.6923164678142 525.9562571156397Q348.359930145912 528.0869389132965 343.5777332222823 528.0869389132965L343.5777332222823 528.0869389132965Q338.9849302362221 528.0869389132965 334.62886967212376 525.8615601468549Q330.2728091080254 523.6598556226095 327.55027125546394 518.9723556677645Q324.8277334029024 514.2848557129196 324.8277334029024 506.94584063210175L324.8277334029024 506.94584063210175Q324.8277334029024 499.96193918422665 327.28985459130587 491.6996286577575Q329.77565002190545 483.41364388909216 333.51618028890294 474.8198939718764Q337.28038479809663 466.20246981246447 341.1866347604674 457.9401592859953Q345.1165589650344 449.67784875952617 348.26523317712724 442.433530647493Q351.41390738922007 435.1892125354599 352.4318998036561 429.7204625881408L352.4318998036561 429.7204625881408Q349.02280892740526 427.3530383685221 345.1165589650344 427.3530383685221L345.1165589650344 427.3530383685221Q341.87318778415687 427.3530383685221 338.55879387669074 429.4837201661789Q335.22072572702837 431.6144019638357 332.3324681790936 436.5386443406425L332.3324681790936 436.5386443406425L331.1250818270881 436.04148525452257Q331.3144757646576 427.3530383685221 334.88928633628177 420.10872025648894Q338.46409690790597 412.8644021444558 344.33530897256026 408.50834158035747Q350.23019527941074 404.1522810162591 357.21409672728583 404.1522810162591L357.21409672728583 404.1522810162591Q365.2159905895969 404.1522810162591 373.7387177802242 411.1598567063304Q382.26144497085136 418.14375815420544 389.5057630828845 434.17122012102385Q396.75008119491764 450.17500784564606 401.2008387278007 477.44773485565315L401.2008387278007 477.44773485565315Q407.6639068473597 456.4960305120279 415.1686416235509 442.3388336787082Q422.6733763997421 428.2053110875848 430.6042475354646 419.8483035923309Q438.51144442899096 411.491296097077 446.2765958693402 407.821788556668Q454.0417473096894 404.1522810162591 461.0256487575645 404.1522810162591L461.0256487575645 404.1522810162591Q469.71409564356503 404.1522810162591 476.62697436485155 408.41364461157275Q483.5161788439419 412.67500820688633 487.5171257750974 419.1617505686415Q491.54174694844914 425.6484929303966 491.54174694844914 432.11156104995564L491.54174694844914 432.11156104995564Q487.28038335313556 430.9278489401463 483.09004248441056 430.40701561183016Q478.92337585788164 429.9098565257102 474.99345165331465 429.9098565257102L474.99345165331465 429.9098565257102Q471.08720169094386 429.9098565257102 467.48871687712347 430.40701561183016L467.48871687712347 430.40701561183016Q465.97356537656754 438.24318977876794 464.26901993844206 447.8786063526159Q462.56447450031663 457.51402292646395 461.2860654217226 467.22046222690045Q460.0076563431285 476.9505757695332 460.0076563431285 485.11818932721764L460.0076563431285 485.11818932721764Q460.0076563431285 493.47519682247156 461.71220178125395 498.7545528322212Q463.4167472193794 504.057583084167 467.67811081469296 504.057583084167L467.67811081469296 504.057583084167Q470.4006486672545 504.057583084167 473.2178834886007 501.66648462235213Q476.01144406775063 499.27538616053727 477.3845501151295 494.32746954153424L477.3845501151295 494.32746954153424L478.56826222493885 494.84830286985033Q478.56826222493885 506.09356791303907 474.82773195794135 513.5036057204454Q471.08720169094386 520.913643527852 465.1923153840934 524.5831510682608Q459.3211033194391 528.2526586086698 453.1894745906267 528.2526586086698ZM561.0729962786495 554.1522795712981L561.0729962786495 554.1522795712981Q559.8892841688403 554.1522795712981 558.7765947856194 554.0812568447095Q557.6639054023985 553.9865598759247 556.4801932925893 553.8208401805514L556.4801932925893 553.8208401805514Q555.4622008781532 546.4818250997336 554.9413675498372 539.2375069877005Q554.420534221521 531.9931888756673 554.2548145261478 525.5301207561083L554.2548145261478 525.5301207561083Q546.0872009684633 529.2706510231058 537.3750798402666 529.2706510231058L537.3750798402666 529.2706510231058Q526.4849284300208 529.2706510231058 516.8495118561727 523.3047419896668Q507.21409528232476 517.3388329562276 501.2481862488857 505.07557549860303Q495.28227721544664 492.7886437987821 495.28227721544664 474.22803791697174L495.28227721544664 474.22803791697174Q495.28227721544664 456.1409168790851 500.9167468581391 443.02538670239767Q506.5275422586353 429.9098565257102 515.5711027775786 421.38712933508305Q524.5909890543257 412.8644021444558 535.1733753160213 408.76875824451554Q545.7320873355205 404.6731143445752 555.6279205735266 404.6731143445752L555.6279205735266 404.6731143445752Q564.4820871549005 404.6731143445752 571.8211022357182 407.6560688612948Q579.1364430743399 410.63902337801426 583.4925036384384 416.01307635654865Q587.8485642025366 421.38712933508305 587.8485642025366 428.86818986907804L587.8485642025366 428.86818986907804Q587.8485642025366 435.02349284008653 584.4394733262859 440.4685685452095Q581.030382450035 445.9136442503324 574.0228067599637 449.2517123999948Q567.0389053120884 452.5661063074609 556.314473597216 452.5661063074609L556.314473597216 452.5661063074609Q558.0190190353414 447.6181896884579 558.6818978168346 443.7119397260871Q559.368450840524 439.7820155215201 559.368450840524 436.8937579735853L559.368450840524 436.8937579735853Q559.368450840524 430.40701561183016 556.6459129879627 428.1106141188001Q553.9233751354011 425.8142126257699 550.3485645637769 425.8142126257699L550.3485645637769 425.8142126257699Q543.3409888737057 425.8142126257699 537.7301934732094 432.11156104995564Q532.0957238305169 438.43258371633743 528.8523526496394 448.56515937630536Q525.632655710958 458.6977350362733 525.632655710958 470.29811371240476L525.632655710958 470.29811371240476Q525.632655710958 486.82273476534306 532.0957238305169 496.197734675033Q538.5824661922721 505.5727345847229 548.2889054927086 505.5727345847229L548.2889054927086 505.5727345847229Q552.0531100019024 505.5727345847229 556.1250796596464 504.057583084167L556.1250796596464 504.057583084167L556.1250796596464 503.8681891465975Q556.1250796596464 491.0840983606567 558.4451553948727 483.50834085787693Q560.7415568879029 475.93258335509717 564.4110644283119 472.6892121742196Q568.0568977265245 469.445840993342 571.9868219310915 469.445840993342L571.9868219310915 469.445840993342Q576.2481855264052 469.445840993342 580.0834127621874 472.3340985412768Q583.9186399979696 475.2460303314078 586.4754581551579 479.76781059087944Q589.0322763123461 484.2659166081549 589.0322763123461 489.5689468601007L589.0322763123461 489.5689468601007Q589.0322763123461 494.32746954153424 586.3807611863731 499.1806891917525Q583.7529203025963 504.057583084167 577.4318976362144 507.9638330465378L577.4318976362144 507.9638330465378Q577.100458245468 509.3369390939166 576.9347385500946 510.68637089909924Q576.7690188547213 512.0594769464781 576.7690188547213 513.4325829938568L576.7690188547213 513.4325829938568Q576.7690188547213 518.0253859799171 578.7103067148087 523.8255753179828Q580.675268817092 529.6257646560487 584.9366324124057 540.0187569801747L584.9366324124057 540.0187569801747Q583.9186399979696 543.9250069425455 580.2491324575608 547.168378123423Q576.5796249171517 550.4117493043005 571.5606855715603 552.2820144377993Q566.5417462259686 554.1522795712981 561.0729962786495 554.1522795712981Z " fill="#e2d3f4" transform="matrix(0.4306434193984674,0,0,0.4306434193984674,0,93.6562389483858)"/><path d="M835.0087532233691 528.309761280703L835.0087532233691 528.309761280703Q829.5520603099833 528.309761280703 824.5441862942353 525.2388951389707Q819.5126902312431 522.1916510444825 816.465446136755 515.5538557688919Q813.3945799950227 508.91606049330136 813.3945799950227 498.5459817531439L813.3945799950227 498.5459817531439Q813.3945799950227 490.0420447452699 815.4496981052589 479.41212348542734Q817.481194168251 468.78220222558485 820.7882807824243 458.05779277676595Q824.1189894438417 447.35700537519114 828.0166272391172 438.6877140366085L828.0166272391172 438.6877140366085Q816.3000918060463 446.5066116744037 807.4418240895109 460.27826521771084Q798.6071784202195 474.0499187610179 792.1347374753377 492.2625171862148L792.1347374753377 492.2625171862148Q793.5048162154951 497.6955880523565 794.3552099162825 502.46724159566355Q795.20560361707 507.2152730917266 795.20560361707 511.1365329342463L795.20560361707 511.1365329342463Q795.20560361707 518.6247219106242 791.6386744832116 522.8766904145612Q788.0481233021094 527.1286589184982 779.213477632818 527.1286589184982L779.213477632818 527.1286589184982Q771.3945799950227 527.1286589184982 767.7331626721881 523.6325959263722Q764.0717453493535 520.1365329342462 764.0717453493535 513.8530683673171L764.0717453493535 513.8530683673171Q764.0717453493535 509.7664541940888 765.5126902312431 504.49873765865567Q766.9772571603771 499.23102112322266 769.6937925934478 493.11291088700216L769.6937925934478 493.11291088700216Q766.6229264517156 484.08928883975807 762.20560361707 472.7743282098368Q757.7882807824243 461.4593675799155 749.7804067666763 448.0420447452699L749.7804067666763 448.0420447452699Q747.4182020422668 458.05779277676595 744.9378870816369 468.02629671377383Q742.481194168251 477.97117860353757 740.8512729084085 486.3806274224352Q739.2449736958101 494.813698288577 739.2449736958101 500.577477816136L739.2449736958101 500.577477816136Q739.2449736958101 509.9318085247974 744.3473359005345 509.9318085247974L744.3473359005345 509.9318085247974L744.6780445619518 510.28613923345887Q744.6780445619518 515.8845644303092 741.8906429871487 519.9003124618052Q739.0796193651015 523.8924384460572 734.7331626721881 526.0184226980258Q730.4103280265188 528.1444069499943 725.6386744832116 528.1444069499943L725.6386744832116 528.1444069499943Q721.0559973178574 528.1444069499943 716.709540624944 525.9239345090493Q712.3630839320306 523.7270841153486 709.6465484989596 519.0499187610179Q706.9300130658888 514.3727534066873 706.9300130658888 507.0499187610179L706.9300130658888 507.0499187610179Q706.9300130658888 500.08141482401004 709.3867059792747 491.83732033582106Q711.8670209399046 483.569603800388 715.5993044044715 474.99480065078166Q719.3552099162825 466.3963754539313 723.2528477115582 458.1522809657423Q727.1741075540779 449.90818647755333 730.3158398375424 442.6798400208604Q733.4575721210069 435.4514935641675 734.473320152503 429.9948006507817L734.473320152503 429.9948006507817Q731.0717453493535 427.63259592637223 727.1741075540779 427.63259592637223L727.1741075540779 427.63259592637223Q723.9378870816369 427.63259592637223 720.6308004674636 429.7585801783407Q717.3000918060463 431.88456443030924 714.4182020422668 436.7979502570809L714.4182020422668 436.7979502570809L713.213477632818 436.3018872649549Q713.4024540107707 427.63259592637223 716.969383144629 420.4042494696793Q720.5363122784872 413.1759030129864 726.3945799950227 408.82944632007303Q732.2764697588022 404.48298962715967 739.2449736958101 404.48298962715967L739.2449736958101 404.48298962715967Q747.2292256643141 404.48298962715967 755.7331626721881 411.47511561141164Q764.2370996800621 418.4436195484195 771.465446136755 434.4357455326715Q778.6937925934478 450.4042494696793 783.1347374753377 477.6168478948762L783.1347374753377 477.6168478948762Q789.5835563729754 456.7113360838526 797.0717453493535 442.58535183188405Q804.5599343257313 428.48298962715967 812.473320152503 420.1444069499943Q820.3630839320306 411.80582427282894 828.1111154280936 408.1444069499943Q835.8591469241566 404.48298962715967 842.8276508611644 404.48298962715967L842.8276508611644 404.48298962715967Q851.4969421997471 404.48298962715967 858.3945799950227 408.7349581310966Q865.2685957430542 412.9869266350337 869.2607217273062 419.4593675799156Q873.2764697588022 425.9318085247974 873.2764697588022 432.3806274224352L873.2764697588022 432.3806274224352Q869.0245012548653 431.1995250602305 864.8433988926605 430.6798400208604Q860.6859185776998 430.1837770287344 856.7646587351802 430.1837770287344L856.7646587351802 430.1837770287344Q852.8670209399046 430.1837770287344 849.2764697588022 430.6798400208604L849.2764697588022 430.6798400208604Q847.7646587351802 438.49873765865567 846.0638713336054 448.11291088700216Q844.3630839320306 457.72708411534865 843.0874933808495 467.41212348542734Q841.8119028296684 477.1207849027502 841.8119028296684 485.2703912019628L841.8119028296684 485.2703912019628Q841.8119028296684 493.60897387912814 843.5126902312431 498.8766904145612Q845.213477632818 504.16802899723837 849.465446136755 504.16802899723837L849.465446136755 504.16802899723837Q852.1819815698259 504.16802899723837 854.9930051918732 501.78220222558485Q857.7804067666763 499.3963754539313 859.1504855068338 494.4593675799155L859.1504855068338 494.4593675799155L860.3315878690385 494.9790526192856Q860.3315878690385 506.19952506023054 856.5993044044715 513.5932258476321Q852.8670209399046 520.9869266350336 846.9851311761252 524.6483439578683Q841.1268634595897 528.309761280703 835.0087532233691 528.309761280703ZM942.6544225147077 554.1522809657423L942.6544225147077 554.1522809657423Q941.473320152503 554.1522809657423 940.3630839320306 554.08141482401Q939.2528477115582 553.9869266350336 938.0717453493535 553.821572304325L938.0717453493535 553.821572304325Q937.0559973178573 546.4987376586557 936.5363122784872 539.2703912019629Q936.0166272391172 532.0420447452699 935.8512729084085 525.5932258476321L935.8512729084085 525.5932258476321Q927.701666609196 529.3255093121991 919.0087532233691 529.3255093121991L919.0087532233691 529.3255093121991Q908.1426114910857 529.3255093121991 898.5284382627392 523.3727534066873Q888.9142650343928 517.4199975011754 882.961509128881 505.1837770287344Q877.0087532233691 492.9239345090494 877.0087532233691 474.4042494696793L877.0087532233691 474.4042494696793Q877.0087532233691 456.35700537519114 882.6308004674637 443.2703912019628Q888.2292256643141 430.1837770287344 897.2528477115582 421.6798400208604Q906.2528477115582 413.1759030129864 916.8119028296684 409.08928883975807Q927.3473359005345 405.00267466652974 937.221351648566 405.00267466652974L937.221351648566 405.00267466652974Q946.0559973178573 405.00267466652974 953.3788319635266 407.97905261928565Q960.6780445619518 410.95543057204156 965.0245012548652 416.317635296451Q969.3709579477786 421.6798400208604 969.3709579477786 429.1444069499943L969.3709579477786 429.1444069499943Q969.3709579477786 435.28613923345887 965.9693831446291 440.7192100996006Q962.5678083414793 446.1522809657423 955.5756823572274 449.48298962715967Q948.6071784202195 452.7900762413329 937.9063910186447 452.7900762413329L937.9063910186447 452.7900762413329Q939.6071784202195 447.8530683673171 940.2685957430542 443.9554305720415Q940.9536351131329 440.03417072952186 940.9536351131329 437.1522809657423L940.9536351131329 437.1522809657423Q940.9536351131329 430.6798400208604 938.2370996800621 428.3885014381833Q935.5205642469912 426.0971628555061 931.9536351131329 426.0971628555061L931.9536351131329 426.0971628555061Q924.961509128881 426.0971628555061 919.3630839320306 432.3806274224352Q913.7410366879361 438.6877140366085 910.5048162154951 448.7979502570809Q907.2922177902983 458.90818647755333 907.2922177902983 470.4829896271596L907.2922177902983 470.4829896271596Q907.2922177902983 486.97117860353757 913.7410366879361 496.325509312199Q920.213477632818 505.6798400208604 929.8985170028967 505.6798400208604L929.8985170028967 505.6798400208604Q933.6544225147078 505.6798400208604 937.717414640692 504.16802899723837L937.717414640692 504.16802899723837L937.717414640692 503.9790526192856Q937.717414640692 491.22314710747463 940.0323752706133 483.66409198936435Q942.3237138532904 476.10503687125413 945.9851311761252 472.8688163988132Q949.6229264517157 469.63259592637223 953.5441862942353 469.63259592637223L953.5441862942353 469.63259592637223Q957.7961547981723 469.63259592637223 961.6229264517157 472.5144856901518Q965.4496981052589 475.4199975011754 968.0008792076212 479.9318085247974Q970.5520603099833 484.4199975011754 970.5520603099833 489.71133608385253L970.5520603099833 489.71133608385253Q970.5520603099833 494.4593675799155 967.9063910186447 499.3018872649549Q965.2843437745503 504.16802899723837 958.977257160377 508.065666792514L958.977257160377 508.065666792514Q958.6465484989596 509.43574553267143 958.481194168251 510.78220222558485Q958.3158398375424 512.1522809657423 958.3158398375424 513.5223597058998L958.3158398375424 513.5223597058998Q958.3158398375424 518.1050368712541 960.2528477115582 523.8924384460572Q962.213477632818 529.6798400208604 966.465446136755 540.0499187610179L966.465446136755 540.0499187610179Q965.4496981052589 543.9475565562934 961.7882807824243 547.1837770287345Q958.1268634595897 550.4199975011754 953.1189894438415 552.2861392334589Q948.1111154280936 554.1522809657423 942.6544225147077 554.1522809657423ZM985.5284382627392 492.073540808262L985.5284382627392 492.073540808262Q984.489068183999 489.8766904145612 984.0638713336054 487.75070616259273Q983.6386744832116 485.6247219106242 983.6386744832116 483.75858017834076L983.6386744832116 483.75858017834076Q983.6386744832116 477.1207849027502 988.2449736958101 472.7743282098368Q992.8276508611644 468.4514935641675 1000.6465484989596 468.4514935641675L1000.6465484989596 468.4514935641675Q1008.1347374753377 468.4514935641675 1015.5284382627392 469.0420447452699Q1022.945761097385 469.63259592637223 1029.229225664314 469.63259592637223L1029.229225664314 469.63259592637223Q1034.000879207621 469.63259592637223 1037.8276508611643 469.0420447452699Q1041.6544225147077 468.4514935641675 1044.016627239117 466.75070616259273L1044.016627239117 466.75070616259273Q1047.0874933808495 472.3491313594431 1047.0874933808495 477.28613923345887L1047.0874933808495 477.28613923345887Q1047.0874933808495 483.073540808262 1042.8355248769126 486.80582427282894Q1038.5835563729754 490.5617297846399 1029.5599343257313 490.5617297846399L1029.5599343257313 490.5617297846399Q1020.20560361707 490.5617297846399 1013.0717453493535 490.3018872649549Q1005.9378870816369 490.0420447452699 1000.3158398375424 490.0420447452699L1000.3158398375424 490.0420447452699Q995.7331626721881 490.0420447452699 992.0717453493535 490.3727534066872Q988.4103280265188 490.72708411534865 985.5284382627392 492.073540808262ZM1098.4418240895109 529.4908636429077L1098.4418240895109 529.4908636429077Q1082.969383144629 529.4908636429077 1073.1189894438417 523.7270841153486Q1063.2449736958101 517.9396825405454 1063.2449736958101 504.82944632007303L1063.2449736958101 504.82944632007303Q1063.2449736958101 503.4829896271596 1063.3394618847865 502.3727534066872Q1063.4103280265188 501.2625171862148 1063.5756823572274 500.577477816136L1063.5756823572274 500.577477816136Q1064.2607217273062 495.82944632007303 1066.481194168251 488.86094238306515Q1068.6780445619518 481.8688163988132 1071.5835563729754 473.9790526192856Q1074.465446136755 466.065666792514 1077.181981569826 458.41212348542734Q1079.9221390501407 450.75858017834076 1081.7882807824244 444.3806274224352Q1083.6544225147077 438.00267466652974 1083.6544225147077 434.08141482401004L1083.6544225147077 434.08141482401004Q1083.6544225147077 429.66409198936435 1080.7725327509281 429.66409198936435L1080.7725327509281 429.66409198936435Q1077.5363122784872 429.66409198936435 1072.76465873518 434.50661167440376Q1068.016627239117 439.3491313594431 1062.72528865644 448.0420447452699L1062.72528865644 448.0420447452699L1061.7095406249439 447.5223597058998Q1061.7095406249439 436.3018872649549 1066.1268634595897 428.1286589184982Q1070.5678083414793 419.97905261928565 1077.8670209399047 414.6168478948762Q1085.189855585574 409.25464317046675 1094.189855585574 406.7034620681045Q1103.213477632818 404.1522809657423 1112.4024540107707 404.1522809657423L1112.4024540107707 404.1522809657423Q1123.7882807824244 404.1522809657423 1133.8276508611643 407.813698288577Q1143.8670209399047 411.47511561141164 1150.2449736958101 418.27826521771084Q1156.6229264517156 425.08141482401004 1156.6229264517156 434.9318085247974L1156.6229264517156 434.9318085247974Q1156.6229264517156 452.6247219106242 1135.0087532233692 462.4987376586557L1135.0087532233692 462.4987376586557Q1147.76465873518 465.3806274224352 1153.717414640692 472.1837770287344Q1159.6701705462037 478.9869266350336 1159.6701705462037 487.325509312199L1159.6701705462037 487.325509312199Q1159.6701705462037 494.6247219106242 1155.3473359005345 502.0420447452699Q1151.000879207621 509.43574553267143 1143.016627239117 515.6483439578683Q1135.0087532233692 521.837320335821 1123.717414640692 525.6640919893644Q1112.4024540107707 529.4908636429077 1098.4418240895109 529.4908636429077ZM1105.0796193651015 457.3963754539313L1105.0796193651015 457.3963754539313Q1112.8985170028968 457.56172978463997 1118.7804067666762 454.91606049330136Q1124.6386744832116 452.2940132492069 1127.9693831446289 448.11291088700216Q1131.2764697588022 443.9554305720415 1131.2764697588022 439.5381077373959L1131.2764697588022 439.5381077373959Q1131.2764697588022 433.7507061625927 1125.1583595225818 429.23889513897063Q1119.0402492863614 424.7270841153486 1105.930013065889 424.7270841153486L1105.930013065889 424.7270841153486Q1106.6150524359675 427.9633045877896 1106.8748949556525 431.1995250602305Q1107.1347374753377 434.4357455326715 1107.1347374753377 437.4829896271596L1107.1347374753377 437.4829896271596Q1107.1347374753377 442.4199975011754 1106.5205642469912 447.35700537519114Q1105.930013065889 452.2940132492069 1105.0796193651015 457.3963754539313ZM1103.213477632818 508.75070616259273L1103.213477632818 508.75070616259273Q1110.5363122784872 508.75070616259273 1116.1347374753377 505.7743282098368Q1121.756784719432 502.7979502570809 1124.9930051918732 498.1207849027502Q1128.20560361707 493.44361954841946 1128.20560361707 488.50661167440376L1128.20560361707 488.50661167440376Q1128.20560361707 481.7034620681045 1121.756784719432 475.91606049330136Q1115.2843437745503 470.1522809657423 1101.5126902312431 468.78220222558485L1101.5126902312431 468.78220222558485Q1100.8276508611643 474.0499187610179 1098.7016666091959 480.0026746665297Q1096.5756823572274 485.9554305720415 1094.7095406249439 491.41212348542734Q1092.8433988926604 496.8451943515691 1092.8433988926604 500.9318085247974L1092.8433988926604 500.9318085247974Q1092.8433988926604 504.49873765865567 1095.0402492863614 506.6247219106242Q1097.2607217273062 508.75070616259273 1103.213477632818 508.75070616259273ZM1298.9693831446289 528.309761280703L1298.9693831446289 528.309761280703Q1293.5363122784872 528.309761280703 1288.504816215495 525.2388951389707Q1283.496942199747 522.1916510444825 1280.426076058015 515.5538557688919Q1277.3788319635266 508.91606049330136 1277.3788319635266 498.5459817531439L1277.3788319635266 498.5459817531439Q1277.3788319635266 490.0420447452699 1279.4103280265188 479.41212348542734Q1281.465446136755 468.78220222558485 1284.7725327509283 458.05779277676595Q1288.0796193651013 447.35700537519114 1292.000879207621 438.6877140366085L1292.000879207621 438.6877140366085Q1280.2607217273062 446.5066116744037 1271.426076058015 460.27826521771084Q1262.5678083414793 474.0499187610179 1256.1189894438417 492.2625171862148L1256.1189894438417 492.2625171862148Q1257.465446136755 497.6955880523565 1258.3158398375424 502.46724159566355Q1259.1662335383298 507.2152730917266 1259.1662335383298 511.1365329342463L1259.1662335383298 511.1365329342463Q1259.1662335383298 518.6247219106242 1255.5993044044717 522.8766904145612Q1252.032375270613 527.1286589184982 1243.197729601322 527.1286589184982L1243.197729601322 527.1286589184982Q1235.3552099162825 527.1286589184982 1231.717414640692 523.6325959263722Q1228.0559973178574 520.1365329342462 1228.0559973178574 513.8530683673171L1228.0559973178574 513.8530683673171Q1228.0559973178574 509.7664541940888 1229.496942199747 504.49873765865567Q1230.9378870816367 499.23102112322266 1233.6544225147077 493.11291088700216L1233.6544225147077 493.11291088700216Q1230.6071784202195 484.08928883975807 1226.189855585574 472.7743282098368Q1221.748910703684 461.4593675799155 1213.76465873518 448.0420447452699L1213.76465873518 448.0420447452699Q1211.3788319635266 458.05779277676595 1208.922139050141 468.02629671377383Q1206.4418240895109 477.97117860353757 1204.8355248769126 486.3806274224352Q1203.229225664314 494.813698288577 1203.229225664314 500.577477816136L1203.229225664314 500.577477816136Q1203.229225664314 509.9318085247974 1208.3315878690385 509.9318085247974L1208.3315878690385 509.9318085247974L1208.6622965304557 510.28613923345887Q1208.6622965304557 515.8845644303092 1205.8512729084086 519.9003124618052Q1203.0402492863614 523.8924384460572 1198.717414640692 526.0184226980258Q1194.3709579477786 528.1444069499943 1189.6229264517156 528.1444069499943L1189.6229264517156 528.1444069499943Q1185.016627239117 528.1444069499943 1180.693792593448 525.9239345090493Q1176.3473359005345 523.7270841153486 1173.6308004674638 519.0499187610179Q1170.9142650343929 514.3727534066873 1170.9142650343929 507.0499187610179L1170.9142650343929 507.0499187610179Q1170.9142650343929 500.08141482401004 1173.3709579477786 491.83732033582106Q1175.8276508611643 483.569603800388 1179.5835563729754 474.99480065078166Q1183.3158398375424 466.3963754539313 1187.237099680062 458.1522809657423Q1191.1347374753377 449.90818647755333 1194.3000918060463 442.6798400208604Q1197.4418240895109 435.4514935641675 1198.457572121007 429.9948006507817L1198.457572121007 429.9948006507817Q1195.0559973178574 427.63259592637223 1191.1347374753377 427.63259592637223L1191.1347374753377 427.63259592637223Q1187.9221390501407 427.63259592637223 1184.5914303887234 429.7585801783407Q1181.2843437745503 431.88456443030924 1178.3788319635266 436.7979502570809L1178.3788319635266 436.7979502570809L1177.197729601322 436.3018872649549Q1177.3630839320306 427.63259592637223 1180.930013065889 420.4042494696793Q1184.5205642469912 413.1759030129864 1190.3788319635266 408.82944632007303Q1196.237099680062 404.48298962715967 1203.229225664314 404.48298962715967L1203.229225664314 404.48298962715967Q1211.213477632818 404.48298962715967 1219.717414640692 411.47511561141164Q1228.2213516485658 418.4436195484195 1235.449698105259 434.4357455326715Q1242.6780445619518 450.4042494696793 1247.0953673965976 477.6168478948762L1247.0953673965976 477.6168478948762Q1253.5678083414793 456.7113360838526 1261.0559973178574 442.58535183188405Q1268.5205642469912 428.48298962715967 1276.4339500737628 420.1444069499943Q1284.3473359005345 411.80582427282894 1292.0953673965976 408.1444069499943Q1299.8197768454165 404.48298962715967 1306.7882807824244 404.48298962715967L1306.7882807824244 404.48298962715967Q1315.481194168251 404.48298962715967 1322.3552099162825 408.7349581310966Q1329.2528477115582 412.9869266350337 1333.2449736958101 419.4593675799156Q1337.237099680062 425.9318085247974 1337.237099680062 432.3806274224352L1337.237099680062 432.3806274224352Q1332.9851311761252 431.1995250602305 1328.8276508611646 430.6798400208604Q1324.6465484989596 430.1837770287344 1320.7489107036843 430.1837770287344L1320.7489107036843 430.1837770287344Q1316.8276508611643 430.1837770287344 1313.2607217273062 430.6798400208604L1313.2607217273062 430.6798400208604Q1311.7252886564402 438.49873765865567 1310.0245012548653 448.11291088700216Q1308.3237138532904 457.72708411534865 1307.0481233021092 467.41212348542734Q1305.7725327509283 477.1207849027502 1305.7725327509283 485.2703912019628L1305.7725327509283 485.2703912019628Q1305.7725327509283 493.60897387912814 1307.473320152503 498.8766904145612Q1309.1741075540779 504.16802899723837 1313.4260760580148 504.16802899723837L1313.4260760580148 504.16802899723837Q1316.1426114910857 504.16802899723837 1318.953635113133 501.78220222558485Q1321.7646587351803 499.3963754539313 1323.1347374753377 494.4593675799155L1323.1347374753377 494.4593675799155L1324.3158398375424 494.9790526192856Q1324.3158398375424 506.19952506023054 1320.5835563729754 513.5932258476321Q1316.8276508611643 520.9869266350336 1310.969383144629 524.6483439578683Q1305.0874933808495 528.309761280703 1298.9693831446289 528.309761280703ZM1351.5284382627392 529.1601549814903L1351.5284382627392 529.1601549814903Q1346.756784719432 529.1601549814903 1343.1189894438414 525.1680289972384Q1339.457572121007 521.1759030129864 1339.457572121007 510.28613923345887L1339.457572121007 510.28613923345887Q1339.457572121007 508.4199975011754 1339.5284382627392 506.9554305720415Q1339.6229264517158 505.5144856901518 1339.6229264517158 504.82944632007303L1339.6229264517158 504.82944632007303Q1340.3079658217941 498.02629671377383 1341.5835563729754 487.91606049330136Q1342.8591469241567 477.80582427282894 1344.5599343257313 466.6562179736163Q1346.2607217273062 455.50661167440376 1348.0323752706133 445.13653293424625Q1349.8276508611646 434.76645419408874 1351.3630839320306 427.0184226980258Q1352.8985170028966 419.2940132492069 1353.9142650343927 416.38850143818325L1353.9142650343927 416.38850143818325Q1355.7804067666764 411.28613923345887 1360.6229264517158 408.30976128070296Q1365.4654461367552 405.33338332794705 1370.5678083414793 405.33338332794705L1370.5678083414793 405.33338332794705Q1375.008753223369 405.33338332794705 1378.6465484989596 407.88456443030924Q1382.3079658217944 410.4357455326715 1383.6780445619518 416.577477816136L1383.6780445619518 416.577477816136Q1382.6622965304557 419.97905261928565 1380.4418240895109 428.55385576889194Q1378.221351648566 437.1522809657423 1375.670170546204 449.55385576889194Q1373.1189894438417 461.97905261928565 1370.8276508611646 476.9554305720415Q1368.5363122784872 491.90818647755333 1367.1662335383296 508.23102112322266L1367.1662335383296 508.23102112322266Q1367.0008792076212 511.1365329342463 1366.670170546204 514.9633045877895Q1366.3158398375424 518.7900762413328 1366.1504855068335 522.6877140366084L1366.1504855068335 522.6877140366084Q1364.1189894438417 524.9081864775533 1360.0323752706133 527.0341707295219Q1355.9457610973848 529.1601549814903 1351.5284382627392 529.1601549814903ZM1397.449698105259 492.073540808262L1397.449698105259 492.073540808262Q1396.433950073763 489.8766904145612 1396.0087532233692 487.75070616259273Q1395.5835563729754 485.6247219106242 1395.5835563729754 483.75858017834076L1395.5835563729754 483.75858017834076Q1395.5835563729754 477.1207849027502 1400.1662335383298 472.7743282098368Q1404.7725327509281 468.4514935641675 1412.5914303887237 468.4514935641675L1412.5914303887237 468.4514935641675Q1420.0796193651015 468.4514935641675 1427.473320152503 469.0420447452699Q1434.8670209399045 469.63259592637223 1441.1504855068335 469.63259592637223L1441.1504855068335 469.63259592637223Q1445.922139050141 469.63259592637223 1449.7489107036843 469.0420447452699Q1453.5756823572274 468.4514935641675 1455.961509128881 466.75070616259273L1455.961509128881 466.75070616259273Q1459.008753223369 472.3491313594431 1459.008753223369 477.28613923345887L1459.008753223369 477.28613923345887Q1459.008753223369 483.073540808262 1454.756784719432 486.80582427282894Q1450.504816215495 490.5617297846399 1441.504816215495 490.5617297846399L1441.504816215495 490.5617297846399Q1432.1504855068335 490.5617297846399 1424.993005191873 490.3018872649549Q1417.8591469241567 490.0420447452699 1412.237099680062 490.0420447452699L1412.237099680062 490.0420447452699Q1407.654422514708 490.0420447452699 1403.9930051918732 490.3727534066872Q1400.3315878690385 490.72708411534865 1397.449698105259 492.073540808262ZM1512.0874933808495 529.3255093121991L1512.0874933808495 529.3255093121991Q1501.3630839320306 529.3255093121991 1493.6386744832118 525.0026746665296Q1485.8906429871486 520.6562179736163 1480.8827689714005 513.0971628555061Q1475.8512729084084 505.5144856901518 1473.5599343257313 495.9003124618053Q1471.2685957430542 486.30976128070296 1471.5993044044715 475.91606049330136L1471.5993044044715 475.91606049330136Q1472.2843437745503 457.3963754539313 1478.4024540107707 443.9554305720415Q1484.5205642469912 430.5144856901518 1493.8748949556527 421.8451943515691Q1503.2292256643138 413.1759030129864 1514.0481233021094 408.9948006507817Q1524.8433988926604 404.83732033582106 1534.8827689714005 404.83732033582106L1534.8827689714005 404.83732033582106Q1543.3867059792747 404.83732033582106 1550.2607217273062 407.6483439578683Q1557.1583595225818 410.4357455326715 1561.24497369581 415.7979502570809Q1565.3079658217941 421.16015498149034 1565.3079658217941 428.813698288577L1565.3079658217941 428.813698288577Q1565.3079658217941 434.76645419408874 1561.8355248769124 440.2940132492069Q1558.3394618847865 445.821572304325 1551.2764697588022 449.317635296451Q1544.237099680062 452.7900762413329 1533.181981569826 452.7900762413329L1533.181981569826 452.7900762413329Q1535.0481233021092 447.35700537519114 1535.8985170028966 443.2703912019628Q1536.7489107036843 439.1837770287345 1536.7489107036843 436.3018872649549L1536.7489107036843 436.3018872649549Q1536.7489107036843 430.3491313594431 1534.0323752706133 428.2231471074746Q1531.2922177902983 426.0971628555061 1527.2292256643138 426.0971628555061L1527.2292256643138 426.0971628555061Q1522.2922177902983 426.0971628555061 1517.8748949556527 429.66409198936435Q1513.4339500737628 433.2310211232226 1509.961509128881 439.27826521771084Q1506.4654461367552 445.3018872649549 1504.4339500737628 452.6247219106242Q1502.3788319635266 459.9475565562935 1502.0481233021094 467.41212348542734L1502.0481233021094 467.41212348542734Q1501.3630839320306 486.30976128070296 1507.4811941682512 495.99480065078166Q1513.6229264517156 505.6798400208604 1523.3079658217944 505.6798400208604L1523.3079658217944 505.6798400208604Q1530.7961547981724 505.6798400208604 1539.8906429871486 499.56172978463997Q1548.9851311761252 493.44361954841946 1557.8433988926606 481.0184226980258L1557.8433988926606 481.0184226980258L1560.0402492863611 482.05779277676595Q1557.8433988926606 497.36487939093917 1550.3552099162825 507.9003124618053Q1542.8670209399045 518.4357455326715 1532.756784719432 523.8924384460572Q1522.6229264517156 529.3255093121991 1512.0874933808495 529.3255093121991ZM1633.8591469241567 529.1601549814903L1633.8591469241567 529.1601549814903Q1627.9063910186446 529.1601549814903 1623.489068183999 525.2388951389707Q1619.0717453493533 521.3412573436951 1619.0717453493533 512.4829896271597L1619.0717453493533 512.4829896271597Q1619.0717453493533 511.63259592637223 1619.0717453493533 510.78220222558485Q1619.0717453493533 509.9318085247974 1619.237099680062 509.08141482401004L1619.237099680062 509.08141482401004Q1614.1347374753375 519.2861392334589 1607.756784719432 524.1522809657423Q1601.3788319635266 528.9948006507816 1594.9063910186449 528.9948006507816L1594.9063910186449 528.9948006507816Q1588.953635113133 528.9948006507816 1583.6859185777 524.8136982885769Q1578.4182020422668 520.6562179736163 1575.1819815698257 512.4829896271597Q1571.9457610973848 504.33338332794705 1571.9457610973848 492.75858017834076L1571.9457610973848 492.75858017834076Q1571.9457610973848 480.8530683673171 1575.2764697588022 471.49873765865567Q1578.5835563729754 462.1444069499943 1584.0166272391173 455.6955880523565Q1589.473320152503 449.22314710747463 1595.922139050141 445.91606049330136Q1602.3945799950227 442.58535183188405 1608.5126902312431 442.58535183188405L1608.5126902312431 442.58535183188405Q1615.3158398375424 442.58535183188405 1620.7725327509281 446.7664541940888Q1626.20560361707 450.9239345090494 1628.237099680062 459.9475565562935L1628.237099680062 459.9475565562935Q1628.756784719432 457.0420447452699 1629.0166272391173 454.6562179736163Q1629.2764697588022 452.2940132492069 1629.2764697588022 451.44361954841946L1629.2764697588022 451.44361954841946Q1629.4418240895109 446.83732033582106 1633.953635113133 444.64046994212026Q1638.4418240895109 442.4199975011754 1643.8985170028966 442.4199975011754L1643.8985170028966 442.4199975011754Q1648.6465484989596 442.4199975011754 1652.8985170028966 444.28613923345887Q1657.1504855068335 446.1522809657423 1658.6859185776998 450.5932258476321L1658.6859185776998 450.5932258476321L1659.0402492863611 451.60897387912814Q1656.985131176125 456.19165104448246 1654.953635113133 462.66409198936435Q1652.8985170028966 469.11291088700216 1651.1977296013217 476.1759030129864Q1649.4969421997473 483.2388951389707 1648.4811941682512 489.94755655629353Q1647.4654461367552 496.6798400208604 1647.4654461367552 501.78220222558485L1647.4654461367552 501.78220222558485Q1647.4654461367552 507.3806274224352 1648.6465484989596 509.50661167440376Q1649.8512729084084 511.63259592637223 1651.5520603099833 511.63259592637223L1651.5520603099833 511.63259592637223Q1654.433950073763 511.63259592637223 1656.8197768454163 507.569603800388L1656.8197768454163 507.569603800388L1658.189855585574 508.23102112322266Q1658.189855585574 514.0184226980258 1654.433950073763 518.7900762413328Q1650.7016666091959 523.5381077373959 1645.0796193651015 526.3491313594432Q1639.4811941682512 529.1601549814903 1633.8591469241567 529.1601549814903ZM1606.1268634595897 507.569603800388L1606.1268634595897 507.569603800388Q1610.5678083414793 507.569603800388 1615.9063910186446 499.6562179736163Q1621.2685957430542 491.74283214684465 1625.189855585574 476.9554305720415L1625.189855585574 476.9554305720415Q1625.5205642469912 475.4199975011754 1625.8748949556527 473.9790526192856Q1626.20560361707 472.5144856901518 1626.3709579477786 471.16802899723837L1626.3709579477786 471.16802899723837Q1623.654422514708 464.86094238306515 1620.6780445619518 462.2388951389707Q1617.7016666091959 459.5932258476321 1614.8197768454163 459.5932258476321L1614.8197768454163 459.5932258476321Q1610.5678083414793 459.5932258476321 1606.9063910186446 464.10503687125413Q1603.24497369581 468.6168478948762 1600.953635113133 475.4199975011754Q1598.6622965304557 482.2231471074746 1598.6622965304557 489.02629671377383L1598.6622965304557 489.02629671377383Q1598.6622965304557 498.3806274224352 1600.7882807824242 502.96330458778954Q1602.9142650343927 507.569603800388 1606.1268634595897 507.569603800388ZM1687.2685957430542 528.9948006507816L1687.2685957430542 528.9948006507816Q1682.6622965304557 528.9948006507816 1678.3394618847865 526.7034620681045Q1673.9930051918732 524.3885014381833 1671.2764697588022 519.2861392334589Q1668.5599343257315 514.1837770287344 1668.5599343257315 506.19952506023054L1668.5599343257315 506.19952506023054Q1668.5599343257315 499.065666792514 1670.5205642469912 489.4514935641675Q1672.457572121007 479.83732033582106 1674.937887081637 469.46724159566355Q1677.3945799950227 459.0971628555061 1679.2607217273062 449.22314710747463Q1681.1504855068335 439.3491313594431 1680.961509128881 431.69558805235647L1680.961509128881 431.69558805235647Q1680.961509128881 424.3963754539313 1679.2607217273062 421.325509312199L1679.2607217273062 421.325509312199L1679.0953673965976 420.82944632007303Q1680.961509128881 415.3727534066872 1685.733162672188 412.325509312199Q1690.504816215495 409.25464317046675 1695.7725327509281 409.25464317046675L1695.7725327509281 409.25464317046675Q1701.72528865644 409.25464317046675 1706.4024540107707 413.76645419408874Q1711.0796193651015 418.27826521771084 1711.0796193651015 428.813698288577L1711.0796193651015 428.813698288577Q1711.0796193651015 434.4357455326715 1709.7095406249439 442.16015498149034Q1708.3630839320306 449.90818647755333 1706.473320152503 458.6719660051124Q1704.6071784202195 467.41212348542734 1702.6465484989599 475.91606049330136Q1700.7095406249439 484.4199975011754 1699.3394618847865 491.577477816136Q1697.969383144629 498.7113360838526 1697.969383144629 503.317635296451L1697.969383144629 503.317635296451Q1697.969383144629 508.065666792514 1699.3394618847865 509.86094238306515Q1700.7095406249439 511.63259592637223 1702.4103280265188 511.63259592637223L1702.4103280265188 511.63259592637223Q1704.2764697588022 511.63259592637223 1705.9772571603771 510.19165104448246Q1707.6780445619518 508.75070616259273 1708.1741075540779 507.569603800388L1708.1741075540779 507.569603800388L1709.544186294235 507.9003124618053Q1709.3788319635266 514.0184226980258 1706.0481233021094 518.7900762413328Q1702.741036687936 523.5381077373959 1697.733162672188 526.2782652177109Q1692.7016666091959 528.9948006507816 1687.2685957430542 528.9948006507816ZM1757.0008792076212 529.4908636429077L1757.0008792076212 529.4908636429077Q1744.24497369581 529.4908636429077 1735.9063910186449 524.3885014381833Q1727.5678083414793 519.2861392334589 1723.5756823572274 510.8766904145612Q1719.5835563729754 502.46724159566355 1719.5835563729754 492.9239345090494L1719.5835563729754 492.9239345090494Q1719.5835563729754 483.9239345090494 1722.8906429871488 474.9003124618053Q1726.221351648566 465.9003124618053 1732.5993044044715 458.4829896271596Q1738.977257160377 451.08928883975807 1748.1426114910857 446.577477816136Q1757.3315878690385 442.08928883975807 1769.237099680062 442.08928883975807L1769.237099680062 442.08928883975807Q1781.993005191873 442.08928883975807 1790.237099680062 447.2625171862148Q1798.504816215495 452.4593675799155 1802.4969421997473 460.96330458778954Q1806.489068183999 469.46724159566355 1806.489068183999 479.1522809657423L1806.489068183999 479.1522809657423Q1806.489068183999 488.0105486822778 1803.2528477115582 496.93968254054545Q1800.0166272391173 505.8688163988132 1793.6386744832114 513.2625171862148Q1787.260721727306 520.6562179736163 1778.0953673965976 525.073540808262Q1768.9063910186444 529.4908636429077 1757.0008792076212 529.4908636429077ZM1761.5835563729754 515.0341707295219L1761.5835563729754 515.0341707295219Q1766.189855585574 515.0341707295219 1769.237099680062 510.28613923345887Q1772.3079658217941 505.5144856901518 1773.8433988926606 498.1207849027502Q1775.3552099162828 490.72708411534865 1775.3552099162828 483.073540808262L1775.3552099162828 483.073540808262Q1775.3552099162828 476.2703912019628 1774.0796193651015 470.22314710747463Q1772.8040288139202 464.1995250602305 1770.2528477115582 460.3727534066872Q1767.701666609196 456.5459817531439 1763.6386744832114 456.5459817531439L1763.6386744832114 456.5459817531439Q1759.1977296013217 456.5459817531439 1756.0559973178572 461.2940132492069Q1752.9142650343927 466.065666792514 1751.3788319635266 473.36487939093917Q1749.8433988926606 480.6877140366085 1749.8433988926606 488.50661167440376L1749.8433988926606 488.50661167440376Q1749.8433988926606 495.30976128070296 1751.1189894438414 501.35700537519114Q1752.3945799950227 507.3806274224352 1754.9457610973848 511.20739907597857Q1757.4969421997469 515.0341707295219 1761.5835563729754 515.0341707295219ZM1836.2528477115582 528.9948006507816L1836.2528477115582 528.9948006507816Q1830.1347374753375 528.9948006507816 1825.3630839320306 523.9633045877895Q1820.6150524359675 518.9554305720415 1820.6150524359675 509.7664541940888L1820.6150524359675 509.7664541940888Q1820.6150524359675 505.3491313594431 1821.6308004674636 499.72708411534865Q1822.6465484989596 494.1286589184982 1824.0166272391173 488.2467691547187Q1825.3630839320306 482.38850143818325 1826.3788319635266 477.19165104448246Q1827.418202042267 472.0184226980258 1827.418202042267 468.6168478948762L1827.418202042267 468.6168478948762Q1827.418202042267 465.0499187610179 1826.1426114910857 462.9239345090494Q1824.8670209399045 460.7979502570809 1822.8119028296685 460.7979502570809L1822.8119028296685 460.7979502570809Q1819.5756823572276 460.7979502570809 1816.1741075540779 465.2152730917266L1816.1741075540779 465.2152730917266L1815.1583595225818 464.53023372164785Q1814.993005191873 461.813698288577 1816.3630839320306 458.05779277676595Q1817.7095406249439 454.325509312199 1820.6150524359675 450.82944632007303Q1823.4969421997469 447.35700537519114 1828.008753223369 444.97117860353757Q1832.5205642469912 442.58535183188405 1838.6386744832114 442.58535183188405L1838.6386744832114 442.58535183188405Q1847.6386744832114 442.58535183188405 1851.72528865644 447.78220222558485Q1855.8119028296685 452.9554305720415 1855.8119028296685 460.27826521771084L1855.8119028296685 460.27826521771084Q1855.8119028296685 461.4593675799155 1855.7174146406921 462.7349581310966Q1855.6465484989596 464.0105486822778 1855.4811941682512 465.2152730917266L1855.4811941682512 465.2152730917266Q1861.5993044044715 454.16015498149034 1868.3079658217941 448.27826521771084Q1875.0402492863611 442.4199975011754 1880.8040288139202 442.4199975011754L1880.8040288139202 442.4199975011754Q1886.260721727306 442.4199975011754 1888.8119028296685 446.6719660051124Q1891.3630839320306 450.9239345090494 1891.3630839320306 456.8766904145612L1891.3630839320306 456.8766904145612Q1891.3630839320306 462.30976128070296 1889.237099680062 467.9318085247974Q1887.1111154280936 473.55385576889194 1882.9300130658887 477.19165104448246Q1878.7725327509281 480.8530683673171 1872.8197768454163 480.6877140366085L1872.8197768454163 480.6877140366085L1872.134737475338 480.35700537519114Q1871.969383144629 475.91606049330136 1869.2528477115582 473.36487939093917Q1866.5363122784872 470.813698288577 1863.134737475338 470.813698288577L1863.134737475338 470.813698288577Q1858.528438262739 470.813698288577 1854.5363122784872 475.4199975011754Q1850.544186294235 480.0026746665297 1850.544186294235 488.6719660051124L1850.544186294235 488.6719660051124Q1850.544186294235 493.96330458778954 1851.72528865644 500.08141482401004Q1852.9300130658887 506.19952506023054 1852.9300130658887 510.4514935641675L1852.9300130658887 510.4514935641675Q1852.9300130658887 515.5538557688919 1850.544186294235 519.8058242728289Q1848.1583595225818 524.057792776766 1844.4260760580148 526.5144856901518Q1840.670170546204 528.9948006507816 1836.2528477115582 528.9948006507816ZM1928.4260760580148 437.317635296451L1928.4260760580148 437.317635296451Q1921.6229264517153 437.317635296451 1917.3000918060463 433.16015498149034Q1912.953635113133 428.97905261928565 1912.953635113133 422.69558805235647L1912.953635113133 422.69558805235647Q1912.953635113133 415.89243844605727 1918.0559973178576 410.95543057204156Q1923.1583595225818 406.0184226980258 1930.4811941682512 406.0184226980258L1930.4811941682512 406.0184226980258Q1937.2843437745503 406.0184226980258 1941.6071784202197 410.2703912019628Q1945.9536351131326 414.5223597058998 1945.9536351131326 420.82944632007303L1945.9536351131326 420.82944632007303Q1945.9536351131326 427.63259592637223 1940.8512729084084 432.47511561141164Q1935.7489107036843 437.317635296451 1928.4260760580148 437.317635296451ZM1916.5205642469912 528.9948006507816L1916.5205642469912 528.9948006507816Q1909.9063910186444 528.9948006507816 1904.6150524359675 524.317635296451Q1899.3473359005345 519.6404699421203 1899.3473359005345 509.2703912019628L1899.3473359005345 509.2703912019628Q1899.3473359005345 503.317635296451 1900.977257160377 498.1207849027502Q1902.5835563729754 492.9239345090494 1904.7095406249439 488.0105486822778Q1906.8355248769124 483.073540808262 1908.4418240895109 478.3963754539313Q1910.0717453493537 473.7192100996006 1910.0717453493537 469.11291088700216L1910.0717453493537 469.11291088700216Q1910.0717453493537 465.0499187610179 1908.701666609196 463.25464317046675Q1907.3552099162828 461.4593675799155 1905.4654461367547 461.4593675799155L1905.4654461367547 461.4593675799155Q1902.5835563729754 461.4593675799155 1899.8670209399045 465.2152730917266L1899.8670209399045 465.2152730917266L1898.6622965304557 464.53023372164785Q1899.3473359005345 457.72708411534865 1903.008753223369 452.88456443030924Q1906.670170546204 448.0420447452699 1912.0323752706133 445.3018872649549Q1917.3709579477788 442.58535183188405 1922.6622965304557 442.58535183188405L1922.6622965304557 442.58535183188405Q1929.1111154280936 442.58535183188405 1933.8827689714005 446.7664541940888Q1938.6308004674636 450.9239345090494 1938.6308004674636 460.27826521771084L1938.6308004674636 460.27826521771084Q1938.6308004674636 465.9003124618053 1937.024501254865 472.08928883975807Q1935.418202042267 478.3018872649549 1933.292217790298 484.4199975011754Q1931.1662335383296 490.5617297846399 1929.5363122784872 495.82944632007303Q1927.9300130658887 501.0971628555061 1927.9300130658887 504.82944632007303L1927.9300130658887 504.82944632007303Q1927.9300130658887 508.065666792514 1929.20560361707 509.43574553267143Q1930.4811941682512 510.78220222558485 1932.0166272391173 510.78220222558485L1932.0166272391173 510.78220222558485Q1933.528438262739 510.78220222558485 1934.993005191873 509.86094238306515Q1936.433950073763 508.91606049330136 1937.1189894438414 507.7349581310967L1937.1189894438414 507.7349581310967L1938.3000918060459 508.065666792514Q1938.3000918060459 514.3727534066873 1934.993005191873 519.0499187610179Q1931.6622965304557 523.7270841153486 1926.72528865644 526.3491313594432Q1921.8119028296685 528.9948006507816 1916.5205642469912 528.9948006507816ZM1988.3079658217941 529.4908636429077L1988.3079658217941 529.4908636429077Q1975.8827689714005 529.4908636429077 1967.7331626721882 524.4829896271597Q1959.559934325731 519.4751156114116 1955.473320152503 511.20739907597857Q1951.386705979275 502.96330458778954 1951.386705979275 493.44361954841946L1951.386705979275 493.44361954841946Q1951.386705979275 484.4199975011754 1954.8827689714005 475.325509312199Q1958.3788319635266 466.23102112322266 1965.0874933808493 458.7428321468447Q1971.7961547981724 451.25464317046675 1981.4103280265188 446.6719660051124Q1991.0245012548655 442.08928883975807 2003.0953673965976 442.08928883975807L2003.0953673965976 442.08928883975807Q2018.0717453493537 442.08928883975807 2024.9457610973848 448.7979502570809Q2031.8433988926606 455.50661167440376 2031.8433988926606 465.0499187610179L2031.8433988926606 465.0499187610179Q2031.8433988926606 473.19952506023054 2027.4969421997469 480.0971628555061Q2023.1741075540779 486.97117860353757 2016.0166272391173 491.1522809657423Q2008.8827689714005 495.30976128070296 2000.3788319635266 495.30976128070296L2000.3788319635266 495.30976128070296Q1995.9615091288808 495.30976128070296 1991.3552099162828 493.96330458778954Q1986.7725327509286 492.5932258476321 1982.3552099162828 489.71133608385253L1982.3552099162828 489.71133608385253Q1983.20560361707 500.2467691547187 1988.473320152503 505.0184226980258Q1993.741036687936 509.7664541940888 2001.0638713336054 509.7664541940888L2001.0638713336054 509.7664541940888Q2006.1662335383296 509.7664541940888 2011.2685957430542 507.80582427282894Q2016.3709579477788 505.8688163988132 2020.6937925934478 502.7034620681045Q2025.0402492863611 499.56172978463997 2027.4260760580148 495.99480065078166L2027.4260760580148 495.99480065078166L2028.6071784202193 496.8451943515691Q2028.6071784202193 505.6798400208604 2024.9457610973848 511.89243844605727Q2021.3079658217946 518.1050368712541 2015.3552099162823 522.0262967137738Q2009.4024540107705 525.9239345090493 2002.3394618847867 527.7192100996006Q1995.276469758802 529.4908636429077 1988.3079658217941 529.4908636429077ZM1992.20560361707 483.569603800388L1992.20560361707 483.569603800388Q1997.6622965304557 483.569603800388 2001.0638713336054 480.4278715169234Q2004.4654461367547 477.28613923345887 2006.1662335383296 473.03417072952186Q2007.8670209399045 468.78220222558485 2007.8670209399045 465.5459817531439L2007.8670209399045 465.5459817531439Q2007.8670209399045 461.6483439578683 2005.6465484989596 459.00267466652974Q2003.4496981052591 456.35700537519114 1999.5284382627394 456.35700537519114L1999.5284382627394 456.35700537519114Q1996.457572121007 456.35700537519114 1992.8197768454163 458.577477816136Q1989.1583595225818 460.7979502570809 1986.2528477115582 466.13653293424625Q1983.3709579477788 471.49873765865567 1982.5205642469912 481.0184226980258L1982.5205642469912 481.0184226980258Q1987.953635113133 483.569603800388 1992.20560361707 483.569603800388Z " fill="#013dc4" transform="matrix(0.4306434193984674,0,0,0.4306434193984674,0,93.6562389483858)"/></g></svg>